<svg version="1.1" id="Layer_1" xmlns="http://www.w3.org/2000/svg" xmlns:xlink="http://www.w3.org/1999/xlink" x="0px" y="0px"
	 width="100%" viewBox="0 0 166 163" enable-background="new 0 0 166 163" xml:space="preserve">
<path fill="#dadce6" opacity="1.000000" stroke="none" 
	d="
M117.000000,164.000000 
	C78.000008,164.000000 39.500008,164.000000 1.000010,164.000000 
	C1.000007,109.666679 1.000007,55.333355 1.000003,1.000025 
	C56.333317,1.000017 111.666634,1.000017 166.999969,1.000008 
	C166.999969,55.333309 166.999969,109.666618 166.999985,163.999969 
	C150.500000,164.000000 134.000000,164.000000 117.000000,164.000000 
M119.921577,105.286316 
	C118.423004,101.481880 116.924438,97.677437 115.808220,93.271202 
	C130.816925,82.260788 145.825638,71.250374 160.834351,60.239956 
	C143.620651,59.294048 126.831055,59.097469 110.051483,59.420837 
	C105.372810,59.511002 103.403549,58.069351 102.039680,53.639023 
	C97.206802,37.940044 91.923973,22.379589 86.385605,5.465511 
	C85.413490,8.179039 84.840019,9.667293 84.344299,11.181013 
	C79.590820,25.696085 74.718178,40.174450 70.196602,54.761566 
	C69.022552,58.549187 67.443199,60.046127 63.283005,59.926941 
	C47.975048,59.488396 32.655136,59.460903 17.339428,59.308411 
	C15.677809,59.291866 14.014273,59.467762 11.070043,59.621170 
	C13.553521,61.570316 14.803590,62.633888 16.134947,63.583500 
	C28.590590,72.467651 41.007725,81.407639 53.564766,90.146439 
	C56.487644,92.180557 57.257004,94.031021 55.981434,97.531113 
	C52.227959,107.830498 48.885983,118.280228 45.408585,128.679688 
	C43.538345,134.272781 41.720715,139.883469 39.879349,145.486221 
	C43.560089,144.232361 46.354527,142.281128 49.144569,140.323639 
	C61.799644,131.444916 74.453476,122.564392 87.367081,114.324699 
	C102.270912,125.060799 117.174744,135.796890 132.078568,146.532990 
	C132.345016,146.244553 132.611465,145.956131 132.877914,145.667694 
	C128.570892,132.460678 124.263870,119.253654 119.921577,105.286316 
z"/>
<path fill="#ffffff" opacity="1.000000" stroke="none" 
	d="
M87.107750,113.684517 
	C74.453476,122.564392 61.799644,131.444916 49.144569,140.323639 
	C46.354527,142.281128 43.560089,144.232361 39.879349,145.486221 
	C41.720715,139.883469 43.538345,134.272781 45.408585,128.679688 
	C48.885983,118.280228 52.227959,107.830498 55.981434,97.531113 
	C57.257004,94.031021 56.487644,92.180557 53.564766,90.146439 
	C41.007725,81.407639 28.590590,72.467651 16.134947,63.583500 
	C14.803590,62.633888 13.553521,61.570316 11.070043,59.621170 
	C14.014273,59.467762 15.677809,59.291866 17.339428,59.308411 
	C32.655136,59.460903 47.975048,59.488396 63.283005,59.926941 
	C67.443199,60.046127 69.022552,58.549187 70.196602,54.761566 
	C74.718178,40.174450 79.590820,25.696085 84.344299,11.181013 
	C84.840019,9.667293 85.413490,8.179039 86.385605,5.465511 
	C91.923973,22.379589 97.206802,37.940044 102.039680,53.639023 
	C103.403549,58.069351 105.372810,59.511002 110.051483,59.420837 
	C126.831055,59.097469 143.620651,59.294048 160.834351,60.239956 
	C145.825638,71.250374 130.816925,82.260788 115.293640,93.609398 
	C106.111855,99.953888 97.444649,105.960190 88.594345,112.122025 
	C87.976746,112.746552 87.542252,113.215530 87.107750,113.684517 
z"/>
<path fill="#ffffff" opacity="1.000000" stroke="none" 
	d="
M87.237411,114.004608 
	C87.542252,113.215530 87.976746,112.746552 88.849030,112.394951 
	C91.524666,112.151299 93.785133,111.893768 95.996307,111.410645 
	C103.992111,109.663643 111.971352,107.840828 119.956848,106.046638 
	C124.263870,119.253654 128.570892,132.460678 132.877914,145.667694 
	C132.611465,145.956131 132.345016,146.244553 132.078568,146.532990 
	C117.174744,135.796890 102.270912,125.060799 87.237411,114.004608 
z"/>
<path fill="#dadce6" opacity="1.000000" stroke="none" 
	d="
M119.939209,105.666473 
	C111.971352,107.840828 103.992111,109.663643 95.996307,111.410645 
	C93.785133,111.893768 91.524666,112.151299 89.032135,112.239410 
	C97.444649,105.960190 106.111855,99.953888 115.102463,93.910294 
	C116.924438,97.677437 118.423004,101.481880 119.939209,105.666473 
z"/>
</svg>